PathFileType	4	(X/Y/Z)	C:\Users\Biomechanik\SynologyDrive\AlexP\Athlete_03\Athlete_3_25_03_31\Squat_bw_01\marker_experimental.trc
DataRate	CameraRate	NumFrames	NumMarkers	Units	OrigDataRate	OrigDataStartFrame	OrigNumFrames
200.000000	200.000000	4	55	mm	200.000000	265	708
Frame#	Time	BL			BR			GLAB			RFHD			LFHD			C7			T6			SPINMOL			SPINM2			SPINM3			T12			BELTOL			BELT2			BELT3			SACROL			SACR2			SACR3			LTHOL			LTH2			LTH3			LSHAOL			LSHA2			LSHA3			LHEE			LTOE			LM5			RTHOL			RTH2			RTH3			RSHAOL			RSHA2			RSHA3			RHEE			RTOE			RM5			STRN			XIPH			LACR			LUAOL			LUA2			LUA3			LLAOL			LLA2			LLA3			LWRR			LWRU			RACR			RUAOL			RUA2			RUA3			RLAOL			RLA2			RLA3			RWRR			RWRU			
		X1	Y1	Z1	X2	Y2	Z2	X3	Y3	Z3	X4	Y4	Z4	X5	Y5	Z5	X6	Y6	Z6	X7	Y7	Z7	X8	Y8	Z8	X9	Y9	Z9	X10	Y10	Z10	X11	Y11	Z11	X12	Y12	Z12	X13	Y13	Z13	X14	Y14	Z14	X15	Y15	Z15	X16	Y16	Z16	X17	Y17	Z17	X18	Y18	Z18	X19	Y19	Z19	X20	Y20	Z20	X21	Y21	Z21	X22	Y22	Z22	X23	Y23	Z23	X24	Y24	Z24	X25	Y25	Z25	X26	Y26	Z26	X27	Y27	Z27	X28	Y28	Z28	X29	Y29	Z29	X30	Y30	Z30	X31	Y31	Z31	X32	Y32	Z32	X33	Y33	Z33	X34	Y34	Z34	X35	Y35	Z35	X36	Y36	Z36	X37	Y37	Z37	X38	Y38	Z38	X39	Y39	Z39	X40	Y40	Z40	X41	Y41	Z41	X42	Y42	Z42	X43	Y43	Z43	X44	Y44	Z44	X45	Y45	Z45	X46	Y46	Z46	X47	Y47	Z47	X48	Y48	Z48	X49	Y49	Z49	X50	Y50	Z50	X51	Y51	Z51	X52	Y52	Z52	X53	Y53	Z53	X54	Y54	Z54	X55	Y55	Z55	

266	1.325	960.693115234375	36.22558975219739	-1933.55126953125	1063.183959960938	32.89429092407226	86.64685821533203	546.33544921875	1247.054443359375	-1204.558471679688	509.2254638671875	1286.755493164062	-1140.886352539062	510.6221923828125	1283.6220703125	-1275.492065429688	268.3048400878906	1195.4013671875	-1205.870483398438	134.1165618896484	1080.480346679688	-1211.823974609375	111.168342590332	1050.840087890625	-1233.032104492188	103.3883895874023	1045.816772460938	-1183.560546875	78.69734191894531	994.9770507812501	-1218.3798828125	53.36205673217773	932.0067138671876	-1216.457397460938	16.6215763092041	911.0980834960939	-1232.255493164062	17.25603485107422	908.3757934570314	-1181.717163085938	-14.34599304199219	856.5800781250001	-1210.563720703125	-43.96596908569336	772.4671020507814	-1234.293823242188	-40.77023315429688	769.5204467773439	-1182.970703125	-62.21706390380859	713.0267333984376	-1210.567626953125	125.4026947021484	544.2633666992189	-1492.550170898438	142.9397277832031	467.2285461425782	-1489.890625	167.905029296875	504.8239135742189	-1512.30517578125	210.6051788330078	314.5476379394532	-1599.275146484375	154.2535705566406	265.4602050781251	-1571.397583007812	199.2969818115234	254.0468292236329	-1591.815795898438	103.9775695800781	70.2655563354493	-1484.26611328125	312.9039611816406	49.78541946411142	-1543.342529296875	241.7837677001953	26.61124610900889	-1628.455444335938	108.7142028808594	538.0201416015626	-932.8685302734375	171.4052124023438	551.70068359375	-885.1903076171875	157.0709228515625	508.8361816406251	-905.9395141601562	191.7039184570312	328.0634765625001	-831.06591796875	201.0675048828125	250.0651397705079	-824.0203247070312	165.4148406982422	274.1848449707032	-849.2638549804688	91.22133636474609	65.34201812744146	-963.3292236328125	286.3888244628906	47.11159896850592	-879.5250854492188	202.1096038818359	39.07884597778325	-802.4281616210938	381.0080871582031	1032.160034179688	-1211.364990234375	331.5887145996094	893.6519165039064	-1210.523803710938	317.9452514648438	1150.84716796875	-1369.70361328125	216.1253662109375	1067.714965820312	-1484.037963867188	163.6923675537109	1030.8388671875	-1501.145629882812	206.9750823974609	1020.099426269531	-1528.64111328125	218.0693969726562	952.6453857421876	-1615.001098632812	291.3621215820312	922.7277221679689	-1617.633056640625	276.8002624511719	971.3255004882814	-1616.008911132812	367.2784729003906	1023.244445800781	-1614.37841796875	363.7886352539062	1028.079833984375	-1536.389038085938	313.8930358886719	1144.505004882812	-1059.9814453125	223.2766571044922	1063.7666015625	-943.4509887695311	210.346923828125	1022.145751953125	-894.3551635742186	174.1917572021484	1021.321105957031	-931.8009643554686	254.1116790771484	966.5859985351562	-793.0345458984374	277.6250915527344	1042.336547851562	-800.6542358398436	306.2544555664062	1001.061706542969	-796.0421752929686	365.3607482910156	1073.3974609375	-810.5198364257811	368.2948608398438	1070.962768554688	-889.1669921874999	
267	1.33	960.6928100585938	36.22579574584973	-1933.551513671875	1063.184204101562	32.89448928833007	86.64682769775391	546.9843139648438	1243.842895507812	-1204.388305664062	509.8627624511719	1283.568115234375	-1140.609252929688	511.265625	1280.41796875	-1275.314331054688	268.8236694335938	1192.463256835938	-1205.641967773438	134.431884765625	1077.822631835938	-1211.60302734375	111.4237899780273	1048.257080078125	-1232.8232421875	103.661262512207	1043.208374023438	-1183.341552734375	78.83071899414062	992.4547119140626	-1218.205444335938	53.35345458984375	929.5650024414064	-1216.307250976562	16.53822135925293	908.7375488281251	-1232.118530273438	17.20232200622559	905.9907836914064	-1181.5830078125	-14.45965671539307	854.2450561523439	-1210.441772460938	-44.24068069458008	769.9762573242189	-1234.200805664062	-41.03295135498047	767.0239868164064	-1182.875122070312	-62.45355987548828	710.5258178710939	-1210.465454101562	125.7427597045898	542.7223510742189	-1492.784912109375	143.6770172119141	465.7545776367189	-1490.365844726562	168.4358520507812	503.5550231933595	-1512.684326171875	211.2288970947266	314.2797241210939	-1599.636596679688	154.7746124267578	265.3670043945314	-1571.66552734375	199.7744293212891	253.8190002441407	-1592.09375	104.040397644043	70.29711151123055	-1484.212524414062	312.9392395019531	49.75060272216806	-1543.328735351562	241.7834625244141	26.61822509765635	-1628.450927734375	109.0433578491211	536.3634033203126	-932.4346923828125	171.664794921875	550.4844360351562	-884.7965087890625	157.5352325439453	507.4877014160157	-905.4169311523438	192.3436431884766	327.7445068359376	-830.55810546875	201.5269317626953	249.6995697021485	-823.6580200195312	165.9291534423828	273.9509277343751	-848.8526000976562	91.27363586425781	65.37256622314459	-963.34521484375	286.4010620117188	47.09431838989263	-879.5244750976562	202.1061096191406	39.08959960937505	-802.40673828125	381.2973327636719	1029.065551757812	-1211.220703125	331.6353759765625	890.7262573242189	-1210.369384765625	318.3842468261719	1147.906005859375	-1369.485107421875	216.47265625	1064.932739257812	-1483.857299804688	163.9878540039062	1028.124145507812	-1500.970458984375	207.2631683349609	1017.345275878906	-1528.464111328125	218.3233642578125	949.8881835937501	-1614.823852539062	291.5810546875	919.8765258789064	-1617.413208007812	277.078125	968.4930419921876	-1615.793701171875	367.6130065917969	1020.306701660156	-1614.110961914062	364.1067504882812	1025.097534179688	-1536.122802734375	314.3826599121094	1141.49169921875	-1059.832763671875	223.7556762695312	1060.901000976562	-943.2284545898436	210.8055114746094	1019.330017089844	-894.1016845703124	174.6458435058594	1018.4921875	-931.5359497070311	254.5963287353516	963.8221435546875	-792.7685546874999	278.1556091308594	1039.552856445312	-800.4746704101561	306.7596740722656	998.2564086914062	-795.8412475585936	365.9259643554688	1070.522583007812	-810.4034423828124	368.7686462402344	1068.059326171875	-889.0617065429686	
268	1.335	960.6925048828125	36.2257766723634	-1933.551513671875	1063.184448242188	32.89479827880859	86.64674377441406	547.6229248046875	1240.664184570312	-1204.200439453125	510.4795532226562	1280.4033203125	-1140.327880859375	511.89794921875	1277.239624023438	-1275.125854492188	269.3385009765625	1189.529296875	-1205.417358398438	134.7489013671875	1075.168701171875	-1211.387573242188	111.6823501586914	1045.678100585938	-1232.615356445312	103.9339752197266	1040.603271484375	-1183.1279296875	78.96687316894531	989.9368896484376	-1218.03125	53.34799957275391	927.1290283203126	-1216.154052734375	16.45696067810059	906.3851928710939	-1231.976440429688	17.1498908996582	903.6132202148439	-1181.44384765625	-14.56906223297119	851.9174804687501	-1210.314331054688	-44.51070022583008	767.4832153320314	-1234.104125976562	-41.29386138916016	764.5245971679689	-1182.776611328125	-62.68381118774414	708.0209350585939	-1210.362182617188	126.0828018188477	541.1788940429689	-1493.017333984375	144.4151153564453	464.2801513671876	-1490.832641601562	168.9644165039062	502.2828674316407	-1513.059326171875	211.8446044921875	314.0142822265626	-1599.994873046875	155.2903289794922	265.2762756347657	-1571.928588867188	200.2438201904297	253.594207763672	-1592.369995117188	104.1019592285156	70.32838439941415	-1484.161865234375	312.9738159179688	49.71830368042001	-1543.316650390625	241.7824401855469	26.6238842010499	-1628.447265625	109.3670349121094	534.7023315429689	-932.0164184570312	171.9150085449219	549.2651977539062	-884.4172973632812	157.9914245605469	506.1369323730469	-904.90771484375	192.9738464355469	327.4276733398438	-830.06201171875	201.9776000976562	249.3399047851563	-823.3010864257812	166.4361877441406	273.7203063964844	-848.44775390625	91.32630157470703	65.40362548828131	-963.36181640625	286.41357421875	47.07731628417974	-879.5240478515625	202.1027526855469	39.0995597839356	-802.38671875	381.5871887207031	1025.97900390625	-1211.078125	331.6853942871094	887.8063964843751	-1210.218139648438	318.8244934082031	1144.970825195312	-1369.2685546875	216.8209991455078	1062.15185546875	-1483.677001953125	164.2847900390625	1025.410034179688	-1500.794921875	207.552490234375	1014.591857910156	-1528.284790039062	218.5806884765625	947.1298828125001	-1614.641967773438	291.803955078125	917.0269165039064	-1617.185913085938	277.3585815429688	965.6610717773439	-1615.572631835938	367.9478759765625	1017.372680664063	-1613.83642578125	364.4241333007812	1022.117126464844	-1535.85009765625	314.8746643066406	1138.481323242188	-1059.68603515625	224.2379302978516	1058.03564453125	-943.0078735351561	211.2674560546875	1016.511291503906	-893.8517456054686	175.1026611328125	1015.663513183594	-931.2760620117186	255.0809020996094	961.05126953125	-792.5071411132811	278.6868591308594	1036.762939453125	-800.2931518554686	307.26513671875	995.4439086914062	-795.6406249999999	366.4935607910156	1067.640869140625	-810.2785644531249	369.2434692382812	1065.156127929688	-888.9475097656249	
269	1.34	960.6922607421875	36.22552490234387	-1933.55126953125	1063.1845703125	32.89515686035156	86.64659118652344	548.2520141601562	1237.51806640625	-1203.99462890625	511.0768432617188	1277.2607421875	-1140.044677734375	512.5199584960938	1274.086303710938	-1274.92724609375	269.8493041992188	1186.60009765625	-1205.197387695312	135.0678253173828	1072.519653320312	-1211.178588867188	111.9442291259766	1043.104125976562	-1232.4091796875	104.2065658569336	1038.00244140625	-1182.919189453125	79.10570526123047	987.4245605468751	-1217.858032226562	53.34603881835938	924.6992187500001	-1215.998779296875	16.37909698486328	904.0418090820314	-1231.830200195312	17.09882926940918	901.2438964843751	-1181.301025390625	-14.67470169067383	849.5982666015626	-1210.182983398438	-44.77618026733398	764.9884033203126	-1234.004760742188	-41.55324935913086	762.0225830078126	-1182.676513671875	-62.90805816650391	705.5121459960939	-1210.259521484375	126.4226989746094	539.6343994140626	-1493.248779296875	145.1531982421875	462.8057861328126	-1491.292602539062	169.4903106689453	501.0078430175782	-1513.430908203125	212.4531555175781	313.7506713867189	-1600.350952148438	155.8008422851562	265.1873474121095	-1572.189575195312	200.7060852050781	253.3718872070313	-1592.645263671875	104.1622924804688	70.35968017578134	-1484.114013671875	313.0077209472656	49.68863296508798	-1543.30615234375	241.7806854248047	26.62821006774912	-1628.444702148438	109.6838836669922	533.0361328125001	-931.614990234375	172.1539154052734	548.0425415039062	-884.0533447265625	158.4379425048828	504.7833557128907	-904.4121704101562	193.59228515625	327.1134643554688	-829.5776977539062	202.4177398681641	248.9865875244141	-822.9491577148438	166.9341735839844	273.4931945800782	-848.0493774414062	91.37907409667969	65.43531036376959	-963.3790283203125	286.4262390136719	47.06068801879888	-879.5238647460938	202.0995330810547	39.10836029052739	-802.3681640625	381.8779296875	1022.900329589844	-1210.936889648438	331.7390747070312	884.8898315429689	-1210.070434570312	319.2672729492188	1142.040649414062	-1369.054321289062	217.1714935302734	1059.372802734375	-1483.49755859375	164.5849151611328	1022.697265625	-1500.61962890625	207.84375	1011.839660644531	-1528.103759765625	218.8412017822266	944.3718261718751	-1614.456787109375	292.030517578125	914.1797485351564	-1616.953857421875	277.6413879394531	962.8308105468751	-1615.34765625	368.2832946777344	1014.443054199219	-1613.557006835938	364.7411804199219	1019.1396484375	-1535.5732421875	315.3692626953125	1135.475463867188	-1059.541259765625	224.7236938476562	1055.171752929688	-942.7892456054686	211.7327880859375	1013.690551757812	-893.6058959960936	175.5623474121094	1012.836547851563	-931.0215454101561	255.5654754638672	958.273193359375	-792.2510986328124	279.2197265625	1033.966552734375	-800.1093749999999	307.771240234375	992.6238403320312	-795.4411010742186	367.0638732910156	1064.751586914062	-810.1458740234374	369.7190856933594	1062.253784179688	-888.8248901367186	
